<?xml version="1.0" encoding="UTF-8" standalone="no"?>
<!DOCTYPE svg PUBLIC "-//W3C//DTD SVG 1.1//EN" "http://www.w3.org/Graphics/SVG/1.1/DTD/svg11.dtd">
<svg width="100%" height="100%" viewBox="0 0 1600 1600" version="1.1" xmlns="http://www.w3.org/2000/svg" xmlns:xlink="http://www.w3.org/1999/xlink" xml:space="preserve" xmlns:serif="http://www.serif.com/" style="fill-rule:evenodd;clip-rule:evenodd;stroke-linejoin:round;stroke-miterlimit:2;">
    <path d="M1600,400C1600,179.234 1420.77,0 1200,0L400,0C179.234,0 0,179.234 0,400L0,1200C0,1420.77 179.234,1600 400,1600L1200,1600C1420.77,1600 1600,1420.77 1600,1200L1600,400Z" style="fill:url(#_Linear1);"/>
    <g id="ic_fluent_iot_24_filled.svg" transform="matrix(66.6667,0,0,66.6667,800,800)">
        <g transform="matrix(1,0,0,1,-12,-12)">
            <path d="M19,4.491C19,4.491 19,4.492 19,4.492C19,5.863 17.871,6.992 16.5,6.992C16.328,6.992 16.156,6.974 15.988,6.939L14.708,9.057C15.532,9.813 16.001,10.882 16,12L16,12.058L17.296,12.319C17.731,11.508 18.579,11 19.5,11C20.871,11 22,12.128 22,13.5C22,14.871 20.871,16 19.5,16C18.239,16 17.165,15.045 17.017,13.793L15.697,13.528C15.353,14.359 14.739,15.05 13.955,15.491L14.45,17.003L14.5,17.003C15.871,17.004 16.998,18.132 16.998,19.503C16.998,20.874 15.87,22.003 14.498,22.003C13.127,22.003 11.998,20.874 11.998,19.503C11.998,18.704 12.382,17.951 13.028,17.481L12.532,15.965C11.086,16.16 9.644,15.548 8.78,14.372L6.985,15.22C6.995,15.313 7.001,15.407 7.001,15.5C7.001,16.872 5.872,18 4.501,18C3.129,18 2.001,16.872 2.001,15.5C2.001,14.129 3.129,13 4.501,13C5.219,13 5.903,13.309 6.377,13.848L8.131,13.02C7.804,11.775 8.096,10.446 8.915,9.453L7.924,8.323C7.63,8.44 7.316,8.5 7,8.5C5.629,8.5 4.5,7.371 4.5,6C4.5,4.629 5.629,3.5 7,3.5C8.372,3.5 9.5,4.629 9.5,6C9.5,6.489 9.357,6.967 9.088,7.375L10.071,8.495C10.662,8.169 11.325,7.999 12,8C12.505,8 12.99,8.094 13.434,8.265L14.679,6.205C14.243,5.741 14,5.128 14,4.492C14,3.121 15.129,1.992 16.5,1.992C17.871,1.992 19,3.121 19,4.492L19,4.491Z" style="fill:white;fill-rule:nonzero;"/>
        </g>
    </g>
    <defs>
        <linearGradient id="_Linear1" x1="0" y1="0" x2="1" y2="0" gradientUnits="userSpaceOnUse" gradientTransform="matrix(-1600,-1.95943e-13,1.95943e-13,-1600,1600,0)"><stop offset="0" style="stop-color:rgb(254,122,251);stop-opacity:1"/><stop offset="1" style="stop-color:rgb(251,192,93);stop-opacity:1"/></linearGradient>
    </defs>
</svg>
